Coordinates
version=1
nRows=26
nColumns=24
inDegrees=yes

Units are S.I. units (second, meters, Newtons, ...)
Angles are in degrees.

endheader
time	pelvis_tilt	pelvis_list	pelvis_rotation	pelvis_tx	pelvis_ty	pelvis_tz	hip_flexion_r	hip_adduction_r	hip_rotation_r	knee_angle_r	ankle_angle_r	subtalar_angle_r	mtp_angle_r	hip_flexion_l	hip_adduction_l	hip_rotation_l	knee_angle_l	ankle_angle_l	subtalar_angle_l	mtp_angle_l	lumbar_extension	lumbar_bending	lumbar_rotation
      0.63000000	      6.25768627	     -1.78494141	     -4.16536200	      0.13751903	      0.97503825	      0.21216766	    -21.75591905	     -2.68306905	    -16.26281074	    -23.66706512	      0.64838095	     15.69117038	     73.12897350	     19.74459399	     -1.40492585	    -16.17747538	    -17.87095229	      0.23481481	      3.78346439	     26.14140499	    -11.64466194	     -0.24130828	      6.54415556
      0.63400000	      6.20605150	     -1.63356600	     -4.16664328	      0.14341274	      0.97557332	      0.21173245	    -21.19874124	     -3.06786449	    -16.09255407	    -24.87866343	     -0.50169329	     15.20821690	     74.19464618	     19.65161028	     -1.22163551	    -16.08985036	    -18.21628165	      0.25814836	      3.63967112	     25.86415455	    -11.61083475	     -0.46003963	      6.44618893
      0.63800000	      6.14906132	     -1.48476647	     -4.16857741	      0.14925121	      0.97610689	      0.21129419	    -20.58961307	     -3.44972760	    -15.89960300	    -26.14264109	     -1.64690848	     14.69801328	     75.00081248	     19.54727914	     -1.03637885	    -16.01558766	    -18.52987571	      0.31294925	      3.49979190	     25.54395384	    -11.57703804	     -0.67379662	      6.34383211
      0.64200000	      6.08615698	     -1.33747279	     -4.17105498	      0.15503135	      0.97663537	      0.21085476	    -19.92897639	     -3.82836293	    -15.68486895	    -27.45609944	     -2.77564622	     14.16334020	     75.53711217	     19.43263023	     -0.84797688	    -15.95264030	    -18.81184680	      0.39802642	      3.36436504	     25.18185859	    -11.54261219	     -0.88381578	      6.23634004
      0.64600000	      6.01689570	     -1.19060568	     -4.17393609	      0.16075119	      0.97715580	      0.21041619	    -19.21786743	     -4.20345001	    -15.44968393	    -28.81553521	     -3.87589836	     13.60719180	     75.79654935	     19.30867272	     -0.65534115	    -15.89899572	    -19.06257374	      0.51172939	      3.23399802	     24.77934225	    -11.50699292	     -1.09136619	      6.12298531
      0.65000000	      5.94096980	     -1.04314842	     -4.17705808	      0.16640983	      0.97766589	      0.20998062	    -18.45790666	     -4.57462402	    -15.19576190	    -30.21689246	     -4.93558283	     13.03271624	     75.77569031	     19.17637173	     -0.45755549	    -15.85273942	    -19.28270883	      0.65203406	      3.10933657	     24.33826936	    -11.46972580	     -1.29766155	      6.00309467
      0.65400000	      5.85822078	     -0.89421675	     -4.18024437	      0.17200746	      0.97816411	      0.20955019	    -17.65126670	     -4.94145703	    -14.92514215	    -31.65562258	     -5.94287598	     12.44315039	     75.47479109	     19.03662253	     -0.25394611	    -15.81210604	    -19.47316799	      0.81663075	      2.99103724	     23.86086222	    -11.43047695	     -1.50377382	      5.87608402
      0.65800000	      5.76864778	     -0.74312268	     -4.18331441	      0.17754515	      0.97864965	      0.20912698	    -16.80061997	     -5.30344040	    -14.64011768	    -33.12675002	     -6.88654589	     11.84175158	     74.89784984	     18.89022293	     -0.04413623	    -15.77551731	    -19.63510564	      1.00301088	      2.87974485	     23.34966156	    -11.38903963	     -1.71055404	      5.74149024
      0.66200000	      5.67241075	     -0.58942773	     -4.18609481	      0.18302476	      0.97912247	      0.20871294	    -15.90906942	     -5.65996860	    -14.34315247	    -34.62494142	     -7.75627119	     11.23173003	     74.05258069	     18.73784517	      0.17191703	    -15.74160704	    -19.76987648	      1.20854927	      2.77607538	     22.80748216	    -11.34533682	     -1.91856571	      5.59899817
      0.66600000	      5.56982893	     -0.43298247	     -4.18843128	      0.18844873	      0.97958324	      0.20830983	    -14.98006694	     -6.01032510	    -14.03679285	    -36.14457682	     -8.54293088	     10.61618527	     72.95030827	     18.58000895	      0.39390410	    -15.70923440	    -19.87898751	      1.43057988	      2.68060462	     22.23736443	    -11.29942007	     -2.12803480	      5.44846163
      0.67000000	      5.46137521	     -0.27394958	     -4.19020114	      0.19381993	      0.98003328	      0.20791918	    -14.01732476	     -6.35367092	    -13.72357840	    -37.67982172	     -9.23885242	      9.99805052	     71.60578398	     18.41705761	      0.62116234	    -15.67748697	    -19.96404376	      1.66646290	      2.59386174	     21.64252292	    -11.25146491	     -2.33881930	      5.28991731
      0.67400000	      5.34766706	     -0.11280902	     -4.19132571	      0.19914157	      0.98047449	      0.20754229	    -13.02472579	     -6.68903641	    -13.40595799	    -39.22469931	     -9.83800794	      9.38004782	     70.03692773	     18.24913957	      0.85269164	    -15.64567601	    -20.02669155	      1.91364223	      2.51632717	     21.02629298	    -11.20176344	     -2.55039983	      5.12359105
      0.67800000	      5.22945430	      0.04965454	     -4.19178202	      0.20441701	      0.98090928	      0.20718017	    -12.00623850	     -7.01531742	    -13.08621595	    -40.77316235	    -10.33615178	      8.76465681	     68.26450097	     18.07619648	      1.08718430	    -15.61332567	    -20.06856277	      2.16969257	      2.44843340	     20.39207671	    -11.15071475	     -2.76189116	      4.94989636
      0.68200000	      5.10760420	      0.21237996	     -4.19161261	      0.20964971	      0.98134051	      0.20683358	    -10.96584078	     -7.33127691	    -12.76641257	    -42.31916377	    -10.73089529	      8.15409858	     66.31171913	     17.89795933	      1.32306699	    -15.58015875	    -20.09122357	      2.43235587	      2.39056792	     19.74328935	    -11.09881383	     -2.97207317	      4.76942532
      0.68600000	      4.98308439	      0.37407048	     -4.19093244	      0.21484315	      0.98177140	      0.20650297	     -9.90745587	     -7.63555325	    -12.44834183	    -43.85672474	    -11.02171838	      7.55033533	     64.20381365	     17.71395281	      1.55855201	    -15.54608015	    -20.09613017	      2.69956731	      2.34307686	     19.08330719	    -11.04663982	     -3.17943884	      4.58293248
      0.69000000	      4.85694408	      0.53324359	     -4.18993166	      0.22000069	      0.98220544	      0.20618855	     -8.83490202	     -7.92667623	    -12.13350776	    -45.37999882	    -11.20992016	      6.95508530	     61.96755508	     17.52350755	      1.79169526	    -15.51115971	    -20.08459386	      2.96947147	      2.30626876	     18.41541819	    -10.99484393	     -3.38225584	      4.39131251
      0.69400000	      4.73029400	      0.68828658	     -4.18887348	      0.22512561	      0.98264632	      0.20589031	     -7.75185655	     -8.20309129	    -11.82311946	    -46.88333080	    -11.29851344	      6.36985117	     59.63075047	     17.32577940	      2.02045823	    -15.47561478	    -20.05775662	      3.24042920	      2.28041752	     17.74277621	    -10.94413771	     -3.57863737	      4.19557285
      0.69800000	      4.60428585	      0.83751474	     -4.18808666	      0.23022097	      0.98309787	      0.20560805	     -6.66183364	     -8.46319150	    -11.51810351	    -48.36130907	    -11.29207004	      5.79595956	     57.22172830	     17.11977422	      2.24277156	    -15.43979307	    -20.01657771	      3.51101654	      2.26576413	     17.06835978	    -10.89528176	     -3.76661805	      3.99680256
      0.70200000	      4.48009234	      0.97922957	     -4.18795298	      0.23528969	      0.98356388	      0.20534147	     -5.56817464	     -8.70535597	    -11.21913153	    -49.80881069	    -11.19652519	      5.23460773	     54.76882508	     16.90437723	      2.45659791	    -15.40415562	    -19.96183067	      3.78001652	      2.26251688	     16.39493622	    -10.84907495	     -3.94423035	      3.79613881
      0.70600000	      4.35888865	      1.11177492	     -4.18889047	      0.24033448	      0.98404802	      0.20509024	     -4.47404902	     -8.92799243	    -10.92665975	    -51.22103866	    -11.01895038	      4.68691370	     52.29988654	     16.67838561	      2.65999220	    -15.36925966	    -19.89410942	      4.04640527	      2.27084989	     15.72503167	    -10.80634406	     -4.10957766	      3.59473233
      0.71000000	      4.24183502	      1.23358970	     -4.19133369	      0.24535789	      0.98455363	      0.20485406	     -3.38246371	     -9.12958163	    -10.64097714	    -52.59355145	    -10.76730427	      4.15396502	     49.84179617	     16.44054282	      2.85115709	    -15.33574093	    -19.81384181	      4.30933383	      2.29090005	     15.06090756	    -10.76793328	     -4.26090031	      3.39371334
      0.71400000	      4.13006028	      1.34325571	     -4.19571228	      0.25036229	      0.98508362	      0.20463273	     -2.29627804	     -9.30872118	    -10.36225831	    -53.92228469	    -10.45017159	      3.63686188	     47.42004178	     16.18957310	      3.02849213	    -15.30429494	    -19.72130877	      4.56810670	      2.32276246	     14.40454381	    -10.73469342	     -4.39663183	      3.19415909
      0.71800000	      4.02464605	      1.43953862	     -4.20242908	      0.25534992	      0.98564042	      0.20442610	     -1.21822118	     -9.46416708	    -10.09061730	    -55.20356513	    -10.07649937	      3.13675024	     45.05832961	     15.92421455	      3.19063506	    -15.27565686	    -19.61666728	      4.82215872	      2.36648487	     13.75762895	    -10.70747012	     -4.51544331	      2.99706424
      0.72200000	      3.92661210	      1.52141991	     -4.21183874	      0.26032286	      0.98622595	      0.20423413	     -0.15090860	     -9.59487172	     -9.82615866	    -56.43411655	     -9.65533965	      2.65484158	     42.77825309	     15.64324976	      3.33649410	    -15.25057973	    -19.49997527	      5.07103132	      2.42206127	     13.12155703	    -10.68709086	     -4.61627536	      2.80331481
      0.72600000	      3.83690312	      1.58811835	     -4.22422744	      0.26528304	      0.98684156	      0.20405680	      0.90314540	     -9.70001756	     -9.56902271	    -57.61105772	     -9.19560716	      2.19241677	     40.59902160	     15.34553334	      3.46527057	    -15.22981113	    -19.37121715	      5.31434931	      2.48942536	     12.49743127	    -10.67435041	     -4.69835700	      2.61366662
      0.73000000	      3.75637713	      1.63910063	     -4.23979463	      0.27023230	      0.98748804	      0.20389404	      1.94152163	     -9.77904598	     -9.31942219	    -58.73189266	     -8.70585954	      1.75081320	     38.53725226	     15.03001619	      3.57647104	    -15.21406858	    -19.23032820	      5.55179936	      2.56844410	     11.88607406	    -10.66999493	     -4.76121233	      2.42872854
